<svg id="svg" version="1.1" xmlns="http://www.w3.org/2000/svg" xmlns:xlink="http://www.w3.org/1999/xlink" width="400" height="400" viewBox="0, 0, 400,400"><g id="svgg"><path id="path0" d="M289.400 94.316 C 288.363 94.506,279.411 96.593,258.000 101.637 C 256.130 102.078,253.970 102.598,253.200 102.794 C 252.430 102.989,250.900 103.352,249.800 103.600 C 247.111 104.206,244.857 104.776,243.372 105.227 C 242.696 105.432,241.830 105.600,241.447 105.600 C 236.286 105.600,235.454 107.330,234.811 119.400 C 234.374 127.609,233.872 136.041,233.193 146.600 C 232.981 149.900,232.623 155.570,232.398 159.200 C 231.106 179.991,229.807 197.475,228.369 213.400 C 227.772 220.014,227.239 226.387,226.780 232.400 C 226.554 235.370,226.201 239.960,225.998 242.600 C 225.794 245.240,225.435 250.010,225.200 253.200 C 224.965 256.390,224.606 261.160,224.403 263.800 C 224.200 266.440,223.920 270.220,223.781 272.200 C 223.576 275.129,223.281 276.322,222.194 278.600 C 212.900 298.099,211.728 302.031,214.895 303.081 C 217.114 303.816,247.628 303.204,299.800 301.378 C 334.168 300.174,331.903 301.827,342.426 270.288 C 348.341 252.560,348.652 253.072,333.000 254.772 C 331.020 254.987,327.510 255.352,325.200 255.583 C 320.769 256.026,315.249 256.599,309.600 257.201 C 307.730 257.400,304.220 257.760,301.800 258.000 C 299.380 258.240,295.870 258.598,294.000 258.796 C 277.178 260.573,278.992 260.670,279.036 258.000 C 279.056 256.790,279.293 253.190,279.562 250.000 C 280.447 239.533,280.768 235.856,281.168 231.600 C 281.623 226.767,282.270 219.655,282.806 213.600 C 283.564 205.019,283.982 200.490,284.390 196.400 C 286.211 178.145,287.374 164.886,288.004 155.200 C 288.528 147.150,289.014 141.866,290.411 129.000 C 292.440 110.326,293.290 96.072,292.436 95.043 C 291.915 94.416,290.588 94.098,289.400 94.316 M204.000 95.235 C 200.590 95.409,193.120 95.749,187.400 95.991 C 181.680 96.232,173.490 96.607,169.200 96.824 C 164.910 97.042,153.930 97.578,144.800 98.016 C 121.771 99.121,102.742 100.161,79.000 101.614 C 69.762 102.179,68.798 102.419,68.802 104.149 C 68.803 104.617,68.280 106.350,67.638 108.000 C 66.580 110.723,63.911 117.754,60.729 126.200 C 60.066 127.960,59.361 129.805,59.162 130.300 C 58.227 132.625,58.049 133.091,57.600 134.400 C 56.980 136.205,56.675 137.002,55.303 140.400 C 55.081 140.950,54.697 141.903,54.450 142.519 C 53.859 143.989,53.875 146.515,54.480 147.120 C 54.841 147.481,59.951 147.600,75.019 147.600 C 86.051 147.600,96.749 147.719,98.792 147.864 L 102.507 148.127 102.258 154.764 C 101.983 162.107,101.447 171.360,100.821 179.600 C 100.424 184.826,100.105 188.366,99.238 197.200 C 99.011 199.510,98.363 207.520,97.797 215.000 C 97.232 222.480,96.600 230.850,96.392 233.600 C 96.184 236.350,95.827 241.030,95.597 244.000 C 94.744 255.052,94.380 259.955,93.981 265.800 C 93.314 275.570,92.838 282.262,92.400 288.000 C 91.486 299.978,91.435 303.555,92.167 304.363 C 93.742 306.104,97.343 306.268,101.600 304.793 C 105.858 303.317,119.960 298.289,120.600 298.019 C 121.040 297.833,122.030 297.464,122.800 297.200 C 123.570 296.936,124.560 296.576,125.000 296.400 C 125.440 296.224,126.430 295.864,127.200 295.600 C 127.970 295.336,128.960 294.976,129.400 294.800 C 129.840 294.624,130.830 294.264,131.600 294.000 C 132.370 293.736,133.360 293.376,133.800 293.200 C 134.240 293.024,135.230 292.664,136.000 292.400 C 136.770 292.136,137.760 291.769,138.200 291.586 C 138.640 291.403,140.170 290.858,141.600 290.376 C 145.386 289.099,145.724 288.450,146.176 281.600 C 146.285 279.950,146.563 276.620,146.794 274.200 C 147.716 264.550,148.030 261.233,148.386 257.400 C 148.590 255.200,148.947 251.375,149.179 248.900 C 149.410 246.425,149.775 242.465,149.989 240.100 C 150.202 237.735,150.554 233.910,150.769 231.600 C 150.984 229.290,151.627 222.360,152.198 216.200 C 153.629 200.762,153.937 197.454,154.411 192.500 C 154.638 190.135,154.997 186.310,155.211 184.000 C 155.425 181.690,155.782 178.000,156.006 175.800 C 156.412 171.800,156.892 166.475,157.593 158.200 C 158.242 150.521,158.506 148.608,158.959 148.297 C 159.201 148.131,168.444 148.011,179.498 148.031 C 204.196 148.076,202.165 148.770,205.964 139.000 C 206.905 136.580,207.820 134.240,207.997 133.800 C 208.174 133.360,208.536 132.370,208.800 131.600 C 209.064 130.830,209.467 129.750,209.694 129.200 C 210.288 127.762,210.654 126.789,211.200 125.200 C 211.464 124.430,211.824 123.440,212.000 123.000 C 212.176 122.560,212.536 121.570,212.800 120.800 C 213.064 120.030,213.434 119.040,213.620 118.600 C 213.807 118.160,214.222 116.990,214.542 116.000 C 214.862 115.010,215.397 113.480,215.730 112.600 C 223.159 92.969,223.999 94.213,204.000 95.235 " stroke="none" fill="#fbfbfb" fill-rule="evenodd"></path><path id="path1" d="M30.100 0.291 C 29.165 0.376,28.400 0.616,28.400 0.823 C 28.400 1.030,27.961 1.200,27.424 1.200 C 26.887 1.200,26.336 1.380,26.200 1.600 C 26.064 1.820,25.513 2.000,24.976 2.000 C 24.439 2.000,24.000 2.180,24.000 2.400 C 24.000 2.620,23.640 2.800,23.200 2.800 C 22.760 2.800,22.400 2.980,22.400 3.200 C 22.400 3.420,22.040 3.600,21.600 3.600 C 21.160 3.600,20.800 3.780,20.800 4.000 C 20.800 4.220,20.440 4.400,20.000 4.400 C 19.560 4.400,19.200 4.580,19.200 4.800 C 19.200 5.020,18.964 5.200,18.675 5.200 C 18.387 5.200,17.802 5.522,17.375 5.917 C 16.949 6.311,15.779 7.196,14.775 7.885 C 12.540 9.417,8.709 13.260,7.958 14.723 C 7.654 15.315,7.089 16.091,6.703 16.447 C 6.316 16.803,6.000 17.398,6.000 17.771 C 6.000 18.143,5.820 18.336,5.600 18.200 C 5.380 18.064,5.200 18.233,5.200 18.576 C 5.200 18.919,5.020 19.200,4.800 19.200 C 4.580 19.200,4.400 19.560,4.400 20.000 C 4.400 20.440,4.220 20.800,4.000 20.800 C 3.780 20.800,3.600 21.160,3.600 21.600 C 3.600 22.040,3.420 22.400,3.200 22.400 C 2.980 22.400,2.800 22.760,2.800 23.200 C 2.800 23.640,2.620 24.000,2.400 24.000 C 2.180 24.000,2.000 24.439,2.000 24.976 C 2.000 25.513,1.820 26.064,1.600 26.200 C 1.380 26.336,1.200 26.872,1.200 27.390 C 1.200 27.909,0.975 28.408,0.700 28.500 C -0.036 28.745,-0.036 371.255,0.700 371.500 C 0.975 371.592,1.200 372.091,1.200 372.610 C 1.200 373.128,1.380 373.664,1.600 373.800 C 1.820 373.936,2.000 374.487,2.000 375.024 C 2.000 375.561,2.180 376.000,2.400 376.000 C 2.620 376.000,2.800 376.360,2.800 376.800 C 2.800 377.240,2.980 377.600,3.200 377.600 C 3.420 377.600,3.600 377.960,3.600 378.400 C 3.600 378.840,3.780 379.200,4.000 379.200 C 4.220 379.200,4.400 379.560,4.400 380.000 C 4.400 380.440,4.580 380.800,4.800 380.800 C 5.020 380.800,5.200 381.081,5.200 381.424 C 5.200 381.767,5.380 381.936,5.600 381.800 C 5.820 381.664,6.000 381.884,6.000 382.288 C 6.000 382.693,6.360 383.283,6.800 383.600 C 7.240 383.917,7.600 384.412,7.600 384.699 C 7.600 385.807,13.392 391.577,15.700 392.768 C 16.305 393.080,16.800 393.485,16.800 393.668 C 16.800 393.850,17.171 394.000,17.624 394.000 C 18.077 394.000,18.336 394.180,18.200 394.400 C 18.064 394.620,18.233 394.800,18.576 394.800 C 18.919 394.800,19.200 394.980,19.200 395.200 C 19.200 395.420,19.560 395.600,20.000 395.600 C 20.440 395.600,20.800 395.780,20.800 396.000 C 20.800 396.220,21.160 396.400,21.600 396.400 C 22.040 396.400,22.400 396.580,22.400 396.800 C 22.400 397.020,22.760 397.200,23.200 397.200 C 23.640 397.200,24.000 397.380,24.000 397.600 C 24.000 397.820,24.540 398.000,25.200 398.000 C 25.860 398.000,26.400 398.180,26.400 398.400 C 26.400 398.620,26.814 398.800,27.320 398.800 C 27.826 398.800,28.465 399.025,28.740 399.300 C 29.476 400.036,370.524 400.036,371.260 399.300 C 371.535 399.025,372.174 398.800,372.680 398.800 C 373.186 398.800,373.600 398.620,373.600 398.400 C 373.600 398.180,374.140 398.000,374.800 398.000 C 375.460 398.000,376.000 397.820,376.000 397.600 C 376.000 397.380,376.360 397.200,376.800 397.200 C 377.240 397.200,377.600 397.020,377.600 396.800 C 377.600 396.580,377.960 396.400,378.400 396.400 C 378.840 396.400,379.200 396.220,379.200 396.000 C 379.200 395.780,379.560 395.600,380.000 395.600 C 380.440 395.600,380.800 395.420,380.800 395.200 C 380.800 394.980,381.081 394.800,381.424 394.800 C 381.767 394.800,381.936 394.620,381.800 394.400 C 381.664 394.180,381.923 394.000,382.376 394.000 C 382.829 394.000,383.200 393.850,383.200 393.668 C 383.200 393.485,383.695 393.080,384.300 392.768 C 386.346 391.712,391.126 387.070,392.073 385.219 C 392.360 384.658,392.911 383.909,393.297 383.553 C 393.684 383.197,394.000 382.602,394.000 382.229 C 394.000 381.857,394.180 381.664,394.400 381.800 C 394.620 381.936,394.800 381.767,394.800 381.424 C 394.800 381.081,394.980 380.800,395.200 380.800 C 395.420 380.800,395.600 380.440,395.600 380.000 C 395.600 379.560,395.780 379.200,396.000 379.200 C 396.220 379.200,396.400 378.840,396.400 378.400 C 396.400 377.960,396.580 377.600,396.800 377.600 C 397.020 377.600,397.200 377.240,397.200 376.800 C 397.200 376.360,397.380 376.000,397.600 376.000 C 397.820 376.000,398.000 375.561,398.000 375.024 C 398.000 374.487,398.180 373.936,398.400 373.800 C 398.620 373.664,398.800 373.128,398.800 372.610 C 398.800 372.091,399.025 371.592,399.300 371.500 C 400.036 371.255,400.036 28.745,399.300 28.500 C 399.025 28.408,398.800 27.909,398.800 27.390 C 398.800 26.872,398.620 26.336,398.400 26.200 C 398.180 26.064,398.000 25.513,398.000 24.976 C 398.000 24.439,397.820 24.000,397.600 24.000 C 397.380 24.000,397.200 23.640,397.200 23.200 C 397.200 22.760,397.020 22.400,396.800 22.400 C 396.580 22.400,396.400 22.040,396.400 21.600 C 396.400 21.160,396.220 20.800,396.000 20.800 C 395.780 20.800,395.600 20.440,395.600 20.000 C 395.600 19.560,395.420 19.200,395.200 19.200 C 394.980 19.200,394.800 18.919,394.800 18.576 C 394.800 18.233,394.620 18.064,394.400 18.200 C 394.180 18.336,394.000 18.143,394.000 17.771 C 394.000 17.398,393.684 16.803,393.297 16.447 C 392.911 16.091,392.346 15.315,392.042 14.723 C 391.291 13.260,387.460 9.417,385.225 7.885 C 384.221 7.196,383.051 6.311,382.625 5.917 C 382.198 5.522,381.613 5.200,381.325 5.200 C 381.036 5.200,380.800 5.020,380.800 4.800 C 380.800 4.580,380.440 4.400,380.000 4.400 C 379.560 4.400,379.200 4.220,379.200 4.000 C 379.200 3.780,378.840 3.600,378.400 3.600 C 377.960 3.600,377.600 3.420,377.600 3.200 C 377.600 2.980,377.240 2.800,376.800 2.800 C 376.360 2.800,376.000 2.620,376.000 2.400 C 376.000 2.180,375.561 2.000,375.024 2.000 C 374.487 2.000,373.936 1.820,373.800 1.600 C 373.664 1.380,373.128 1.200,372.610 1.200 C 372.091 1.200,371.592 0.975,371.500 0.700 C 371.343 0.229,35.199 -0.174,30.100 0.291 M292.507 94.300 C 293.566 95.476,293.651 96.728,293.175 104.200 C 292.558 113.875,292.168 118.249,290.785 131.000 C 289.750 140.545,289.165 147.165,288.400 158.000 C 287.693 168.011,286.770 178.401,285.202 194.000 C 284.737 198.622,284.266 203.681,283.618 211.000 C 282.999 217.986,280.880 241.869,280.423 247.000 C 280.208 249.420,279.916 253.236,279.774 255.480 L 279.517 259.560 282.458 259.365 C 284.076 259.257,286.030 259.074,286.800 258.959 C 287.570 258.844,289.955 258.581,292.100 258.375 C 295.929 258.007,300.252 257.567,307.400 256.819 C 309.380 256.612,312.800 256.258,315.000 256.032 C 321.076 255.409,326.611 254.823,330.600 254.380 C 346.312 252.635,348.702 253.619,346.203 260.800 C 345.628 262.450,344.881 264.700,344.542 265.800 C 344.203 266.900,343.763 268.113,343.563 268.495 C 343.363 268.877,343.200 269.541,343.200 269.971 C 343.200 270.401,343.020 270.864,342.800 271.000 C 342.580 271.136,342.400 271.676,342.400 272.200 C 342.400 272.724,342.220 273.264,342.000 273.400 C 341.780 273.536,341.600 274.076,341.600 274.600 C 341.600 275.124,341.420 275.664,341.200 275.800 C 340.980 275.936,340.800 276.476,340.800 277.000 C 340.800 277.524,340.620 278.064,340.400 278.200 C 340.180 278.336,340.000 278.876,340.000 279.400 C 340.000 279.924,339.856 280.442,339.679 280.551 C 339.503 280.660,339.107 281.672,338.800 282.800 C 338.493 283.928,338.097 284.940,337.921 285.049 C 337.744 285.158,337.600 285.599,337.600 286.029 C 337.600 286.459,337.435 287.123,337.233 287.505 C 337.031 287.887,336.493 289.047,336.039 290.083 C 331.777 299.790,327.928 301.210,304.200 301.826 C 299.140 301.957,291.040 302.234,286.200 302.440 C 277.741 302.802,258.705 303.256,229.000 303.806 C 211.138 304.137,210.130 303.671,213.649 296.705 C 213.842 296.323,214.000 295.833,214.000 295.616 C 214.000 295.004,217.630 286.761,220.437 281.000 L 222.971 275.800 223.267 271.200 C 223.430 268.670,223.760 264.080,224.000 261.000 C 224.239 257.920,224.607 253.105,224.818 250.300 C 225.771 237.580,226.649 226.436,227.188 220.200 C 227.397 217.780,227.748 213.730,227.967 211.200 C 229.793 190.106,230.467 180.998,231.979 157.000 C 232.200 153.480,232.561 147.810,232.779 144.400 C 232.998 140.990,233.452 133.070,233.788 126.800 C 234.953 105.070,234.291 106.608,243.400 104.484 C 249.368 103.092,257.461 101.193,263.600 99.743 C 266.790 98.990,270.210 98.188,271.200 97.962 C 272.190 97.735,273.630 97.392,274.400 97.200 C 275.170 97.008,276.700 96.648,277.800 96.400 C 281.667 95.529,285.744 94.494,287.200 94.015 C 289.069 93.399,291.829 93.547,292.507 94.300 M220.456 95.165 C 221.522 96.028,221.768 98.714,220.938 100.439 C 220.271 101.827,218.348 106.940,215.990 113.600 C 213.553 120.480,210.032 130.128,209.201 132.200 C 209.025 132.640,208.664 133.630,208.400 134.400 C 208.136 135.170,207.757 136.205,207.560 136.700 C 207.362 137.195,207.020 138.050,206.800 138.600 C 206.580 139.150,206.243 140.005,206.051 140.500 C 202.725 149.067,203.596 148.800,179.023 148.800 L 158.898 148.800 158.651 152.300 C 158.214 158.499,157.315 168.700,156.385 178.000 C 156.176 180.090,155.823 183.780,155.600 186.200 C 155.166 190.919,154.587 197.082,154.002 203.200 C 153.803 205.290,153.455 208.980,153.229 211.400 C 153.003 213.820,152.638 217.690,152.417 220.000 C 151.795 226.490,151.216 232.775,150.022 246.000 C 149.813 248.310,149.174 255.240,148.602 261.400 C 146.937 279.309,146.831 280.454,146.573 283.400 C 146.301 286.504,145.717 288.763,145.024 289.389 C 144.191 290.142,142.820 290.800,142.085 290.800 C 141.686 290.800,141.189 290.943,140.980 291.118 C 140.771 291.293,139.880 291.665,139.000 291.945 C 138.120 292.224,137.040 292.603,136.600 292.787 C 136.160 292.971,134.765 293.500,133.500 293.961 C 132.235 294.422,130.255 295.150,129.100 295.579 C 126.832 296.420,117.655 299.699,112.800 301.404 C 111.150 301.983,109.440 302.612,109.000 302.802 C 108.560 302.992,107.480 303.376,106.600 303.655 C 105.720 303.935,104.829 304.307,104.620 304.482 C 104.411 304.657,103.914 304.800,103.515 304.800 C 103.116 304.800,102.477 304.958,102.095 305.151 C 98.441 306.997,93.367 306.729,91.598 304.598 C 91.100 303.997,90.966 292.703,91.448 291.923 C 91.575 291.718,91.848 288.816,92.055 285.475 C 92.874 272.271,93.757 260.081,96.000 231.000 C 96.783 220.849,97.163 215.868,97.572 210.400 C 98.107 203.255,98.677 196.704,99.190 191.800 C 99.997 184.094,101.993 154.316,101.998 149.900 L 102.000 148.400 78.689 148.400 C 51.896 148.400,53.600 148.633,53.600 144.972 C 53.600 143.771,53.766 142.477,53.969 142.095 C 54.172 141.713,54.909 139.870,55.607 138.000 C 57.557 132.775,58.187 131.203,58.847 129.905 C 59.041 129.523,59.200 128.936,59.200 128.600 C 59.200 128.264,59.359 127.677,59.553 127.295 C 59.879 126.654,60.193 125.913,61.161 123.500 C 61.360 123.005,61.917 121.520,62.400 120.200 C 62.883 118.880,63.427 117.440,63.609 117.000 C 64.595 114.617,67.259 107.444,68.018 105.129 C 69.222 101.455,68.861 101.561,82.800 100.774 C 86.870 100.544,93.260 100.181,97.000 99.968 C 103.594 99.592,110.854 99.193,125.800 98.385 C 146.908 97.244,176.669 95.833,192.363 95.229 C 198.392 94.997,203.417 94.716,203.530 94.604 C 204.212 93.921,219.548 94.429,220.456 95.165 " stroke="none" fill="#248c8c" fill-rule="evenodd"></path><path id="path2" d="M287.200 94.400 C 285.856 94.831,287.308 94.831,289.000 94.400 C 290.078 94.126,290.098 94.094,289.200 94.087 C 288.650 94.083,287.750 94.224,287.200 94.400 M291.000 94.289 C 291.440 94.398,292.070 94.692,292.400 94.943 C 292.922 95.340,292.928 95.309,292.451 94.700 C 292.149 94.315,291.519 94.021,291.051 94.046 C 290.243 94.090,290.240 94.103,291.000 94.289 M213.891 94.689 C 214.601 94.777,215.861 94.779,216.691 94.692 C 217.521 94.605,216.940 94.533,215.400 94.531 C 213.860 94.529,213.181 94.600,213.891 94.689 M205.700 95.091 C 206.525 95.178,207.875 95.178,208.700 95.091 C 209.525 95.005,208.850 94.934,207.200 94.934 C 205.550 94.934,204.875 95.005,205.700 95.091 M219.468 95.383 C 220.245 95.721,220.804 96.295,220.913 96.867 C 221.084 97.765,221.093 97.767,221.146 96.923 C 221.203 95.998,219.863 94.789,218.811 94.816 C 218.475 94.824,218.771 95.080,219.468 95.383 M194.917 95.497 C 196.411 95.574,198.751 95.574,200.117 95.496 C 201.482 95.418,200.260 95.355,197.400 95.355 C 194.540 95.356,193.422 95.420,194.917 95.497 M282.200 95.619 C 281.642 95.871,281.885 95.907,283.000 95.738 C 283.880 95.604,284.675 95.428,284.767 95.347 C 285.110 95.044,282.968 95.271,282.200 95.619 M186.700 95.889 C 187.415 95.978,188.585 95.978,189.300 95.889 C 190.015 95.801,189.430 95.728,188.000 95.728 C 186.570 95.728,185.985 95.801,186.700 95.889 M292.946 99.400 C 292.947 101.600,293.014 102.449,293.095 101.287 C 293.176 100.124,293.176 98.324,293.093 97.287 C 293.011 96.249,292.945 97.200,292.946 99.400 M176.500 96.296 C 177.765 96.375,179.835 96.375,181.100 96.296 C 182.365 96.216,181.330 96.151,178.800 96.151 C 176.270 96.151,175.235 96.216,176.500 96.296 M169.500 96.689 C 170.215 96.778,171.385 96.778,172.100 96.689 C 172.815 96.601,172.230 96.528,170.800 96.528 C 169.370 96.528,168.785 96.601,169.500 96.689 M159.715 97.096 C 160.988 97.176,162.968 97.175,164.115 97.094 C 165.262 97.014,164.220 96.949,161.800 96.950 C 159.380 96.951,158.442 97.016,159.715 97.096 M275.600 97.206 C 275.178 97.482,275.415 97.523,276.400 97.342 C 278.125 97.025,278.451 96.798,277.167 96.806 C 276.635 96.809,275.930 96.989,275.600 97.206 M153.100 97.489 C 153.815 97.578,154.985 97.578,155.700 97.489 C 156.415 97.401,155.830 97.328,154.400 97.328 C 152.970 97.328,152.385 97.401,153.100 97.489 M143.113 97.895 C 144.276 97.976,146.076 97.976,147.113 97.893 C 148.151 97.811,147.200 97.745,145.000 97.746 C 142.800 97.747,141.951 97.814,143.113 97.895 M272.200 98.000 C 271.181 98.438,272.232 98.438,273.600 98.000 C 274.404 97.743,274.443 97.677,273.800 97.668 C 273.360 97.662,272.640 97.811,272.200 98.000 M136.700 98.289 C 137.415 98.378,138.585 98.378,139.300 98.289 C 140.015 98.201,139.430 98.128,138.000 98.128 C 136.570 98.128,135.985 98.201,136.700 98.289 M220.528 99.473 C 219.598 102.477,219.589 102.577,220.404 100.826 C 220.858 99.850,221.178 98.803,221.115 98.499 C 221.052 98.196,220.787 98.634,220.528 99.473 M127.100 98.693 C 128.035 98.777,129.565 98.777,130.500 98.693 C 131.435 98.609,130.670 98.540,128.800 98.540 C 126.930 98.540,126.165 98.609,127.100 98.693 M121.907 99.090 C 122.626 99.179,123.706 99.177,124.307 99.086 C 124.908 98.995,124.320 98.922,123.000 98.924 C 121.680 98.926,121.188 99.001,121.907 99.090 M112.291 99.489 C 113.001 99.577,114.261 99.579,115.091 99.492 C 115.921 99.405,115.340 99.333,113.800 99.331 C 112.260 99.329,111.581 99.400,112.291 99.489 M265.400 99.600 C 264.896 99.817,264.822 99.944,265.200 99.944 C 265.530 99.944,266.160 99.789,266.600 99.600 C 267.104 99.383,267.178 99.256,266.800 99.256 C 266.470 99.256,265.840 99.411,265.400 99.600 M107.507 99.890 C 108.226 99.979,109.306 99.977,109.907 99.886 C 110.508 99.795,109.920 99.722,108.600 99.724 C 107.280 99.726,106.788 99.801,107.507 99.890 M95.000 100.400 L 92.600 100.666 94.600 100.686 C 95.700 100.697,97.770 100.575,99.200 100.414 L 101.800 100.122 99.600 100.128 C 98.390 100.132,96.320 100.254,95.000 100.400 M262.200 100.400 C 261.696 100.617,261.622 100.744,262.000 100.744 C 262.330 100.744,262.960 100.589,263.400 100.400 C 263.904 100.183,263.978 100.056,263.600 100.056 C 263.270 100.056,262.640 100.211,262.200 100.400 M81.400 101.200 L 79.000 101.466 81.000 101.486 C 82.100 101.497,84.170 101.375,85.600 101.214 L 88.200 100.922 86.000 100.928 C 84.790 100.932,82.720 101.054,81.400 101.200 M258.600 101.200 C 258.096 101.417,258.022 101.544,258.400 101.544 C 258.730 101.544,259.360 101.389,259.800 101.200 C 260.304 100.983,260.378 100.856,260.000 100.856 C 259.670 100.856,259.040 101.011,258.600 101.200 M71.200 102.020 C 70.526 102.249,70.851 102.284,72.200 102.128 C 73.300 102.001,74.275 101.831,74.367 101.749 C 74.682 101.468,72.199 101.680,71.200 102.020 M255.400 102.000 C 254.896 102.217,254.822 102.344,255.200 102.344 C 255.530 102.344,256.160 102.189,256.600 102.000 C 257.104 101.783,257.178 101.656,256.800 101.656 C 256.470 101.656,255.840 101.811,255.400 102.000 M248.600 103.600 C 248.096 103.817,248.022 103.944,248.400 103.944 C 248.730 103.944,249.360 103.789,249.800 103.600 C 250.304 103.383,250.378 103.256,250.000 103.256 C 249.670 103.256,249.040 103.411,248.600 103.600 M241.800 105.200 L 241.000 105.544 241.800 105.566 C 242.240 105.578,242.870 105.413,243.200 105.200 C 243.995 104.686,242.996 104.686,241.800 105.200 M292.284 108.400 C 292.132 109.610,292.029 111.320,292.057 112.200 C 292.086 113.140,292.249 112.480,292.453 110.600 C 292.849 106.944,292.705 105.064,292.284 108.400 M235.429 109.029 C 235.281 109.615,235.238 110.172,235.332 110.266 C 235.427 110.360,235.624 109.958,235.771 109.371 C 235.919 108.785,235.962 108.228,235.868 108.134 C 235.773 108.040,235.576 108.442,235.429 109.029 M234.667 115.560 C 234.520 116.967,234.425 119.036,234.456 120.159 C 234.489 121.393,234.647 120.540,234.856 118.000 C 235.235 113.368,235.091 111.503,234.667 115.560 M291.320 120.400 C 291.320 121.610,291.395 122.105,291.487 121.500 C 291.578 120.895,291.578 119.905,291.487 119.300 C 291.395 118.695,291.320 119.190,291.320 120.400 M61.077 124.277 C 60.700 125.293,60.458 126.191,60.538 126.272 C 60.619 126.352,61.000 125.593,61.385 124.585 C 61.770 123.576,62.012 122.679,61.923 122.590 C 61.835 122.501,61.454 123.260,61.077 124.277 M290.520 128.400 C 290.520 129.610,290.595 130.105,290.687 129.500 C 290.778 128.895,290.778 127.905,290.687 127.300 C 290.595 126.695,290.520 127.190,290.520 128.400 M234.124 129.400 C 234.126 130.720,234.201 131.212,234.290 130.493 C 234.379 129.774,234.377 128.694,234.286 128.093 C 234.195 127.492,234.122 128.080,234.124 129.400 M233.720 134.000 C 233.720 135.210,233.795 135.705,233.887 135.100 C 233.978 134.495,233.978 133.505,233.887 132.900 C 233.795 132.295,233.720 132.790,233.720 134.000 M289.714 135.800 C 289.717 136.900,289.795 137.303,289.887 136.695 C 289.979 136.086,289.977 135.186,289.882 134.695 C 289.787 134.203,289.711 134.700,289.714 135.800 M205.867 139.267 C 205.505 140.188,205.274 141.007,205.354 141.088 C 205.434 141.168,205.800 140.483,206.167 139.567 C 206.533 138.650,206.764 137.831,206.679 137.746 C 206.594 137.661,206.229 138.345,205.867 139.267 M233.320 142.400 C 233.320 143.610,233.395 144.105,233.487 143.500 C 233.578 142.895,233.578 141.905,233.487 141.300 C 233.395 140.695,233.320 141.190,233.320 142.400 M288.924 143.800 C 288.926 145.120,289.001 145.612,289.090 144.893 C 289.179 144.174,289.177 143.094,289.086 142.493 C 288.995 141.892,288.922 142.480,288.924 143.800 M203.414 144.635 C 203.041 145.204,202.805 145.738,202.889 145.822 C 202.973 145.907,203.358 145.441,203.744 144.788 C 204.606 143.328,204.348 143.209,203.414 144.635 M232.920 146.800 C 232.920 148.010,232.995 148.505,233.087 147.900 C 233.178 147.295,233.178 146.305,233.087 145.700 C 232.995 145.095,232.920 145.590,232.920 146.800 M200.437 147.430 C 199.467 147.963,198.927 148.399,199.237 148.399 C 199.842 148.397,202.400 146.947,202.400 146.606 C 202.400 146.339,202.480 146.305,200.437 147.430 M288.501 148.600 C 288.505 149.480,288.587 149.793,288.683 149.295 C 288.779 148.798,288.775 148.078,288.675 147.695 C 288.575 147.313,288.496 147.720,288.501 148.600 M56.400 147.856 C 57.170 147.923,67.880 148.028,80.200 148.089 C 92.520 148.150,101.340 148.087,99.800 147.950 C 98.260 147.812,87.550 147.707,76.000 147.717 C 64.450 147.727,55.630 147.789,56.400 147.856 M168.728 148.300 C 174.078 148.363,182.718 148.363,187.928 148.300 C 193.137 148.236,188.760 148.185,178.200 148.185 C 167.640 148.185,163.377 148.237,168.728 148.300 M288.140 154.800 C 288.140 156.670,288.209 157.435,288.293 156.500 C 288.377 155.565,288.377 154.035,288.293 153.100 C 288.209 152.165,288.140 152.930,288.140 154.800 M232.520 154.800 C 232.520 156.010,232.595 156.505,232.687 155.900 C 232.778 155.295,232.778 154.305,232.687 153.700 C 232.595 153.095,232.520 153.590,232.520 154.800 M101.817 158.417 C 101.658 160.862,101.614 162.948,101.719 163.052 C 101.824 163.157,102.040 161.244,102.200 158.800 C 102.360 156.356,102.404 154.270,102.298 154.164 C 102.192 154.058,101.975 155.972,101.817 158.417 M157.724 157.000 C 157.726 158.320,157.801 158.812,157.890 158.093 C 157.979 157.374,157.977 156.294,157.886 155.693 C 157.795 155.092,157.722 155.680,157.724 157.000 M232.128 159.600 C 232.128 161.030,232.201 161.615,232.289 160.900 C 232.378 160.185,232.378 159.015,232.289 158.300 C 232.201 157.585,232.128 158.170,232.128 159.600 M287.701 160.600 C 287.705 161.480,287.787 161.793,287.883 161.295 C 287.979 160.798,287.975 160.078,287.875 159.695 C 287.775 159.313,287.696 159.720,287.701 160.600 M157.056 163.445 C 156.915 164.472,156.824 166.142,156.854 167.156 C 156.889 168.351,157.029 167.743,157.251 165.430 C 157.616 161.640,157.485 160.313,157.056 163.445 M287.331 165.800 C 287.333 167.340,287.405 167.921,287.492 167.091 C 287.579 166.261,287.577 165.001,287.489 164.291 C 287.400 163.581,287.329 164.260,287.331 165.800 M231.720 167.200 C 231.720 168.410,231.795 168.905,231.887 168.300 C 231.978 167.695,231.978 166.705,231.887 166.100 C 231.795 165.495,231.720 165.990,231.720 167.200 M101.018 172.018 C 100.860 174.244,100.817 176.150,100.921 176.254 C 101.025 176.359,101.241 174.624,101.400 172.400 C 101.559 170.176,101.603 168.270,101.497 168.164 C 101.392 168.058,101.176 169.793,101.018 172.018 M286.893 170.400 C 286.893 171.170,286.975 171.485,287.076 171.100 C 287.176 170.715,287.176 170.085,287.076 169.700 C 286.975 169.315,286.893 169.630,286.893 170.400 M231.331 172.200 C 231.333 173.740,231.405 174.321,231.492 173.491 C 231.579 172.661,231.577 171.401,231.489 170.691 C 231.400 169.981,231.329 170.660,231.331 172.200 M156.493 171.600 C 156.493 172.370,156.575 172.685,156.676 172.300 C 156.776 171.915,156.776 171.285,156.676 170.900 C 156.575 170.515,156.493 170.830,156.493 171.600 M286.524 175.000 C 286.526 176.320,286.601 176.812,286.690 176.093 C 286.779 175.374,286.777 174.294,286.686 173.693 C 286.595 173.092,286.522 173.680,286.524 175.000 M156.120 175.200 C 156.120 176.410,156.195 176.905,156.287 176.300 C 156.378 175.695,156.378 174.705,156.287 174.100 C 156.195 173.495,156.120 173.990,156.120 175.200 M230.909 179.200 C 230.909 180.190,230.987 180.595,231.082 180.100 C 231.178 179.605,231.178 178.795,231.082 178.300 C 230.987 177.805,230.909 178.210,230.909 179.200 M286.101 179.000 C 286.105 179.880,286.187 180.193,286.283 179.695 C 286.379 179.198,286.375 178.478,286.275 178.095 C 286.175 177.713,286.096 178.120,286.101 179.000 M100.225 183.225 C 100.070 184.794,100.027 186.161,100.129 186.262 C 100.231 186.364,100.443 185.166,100.600 183.600 C 100.757 182.034,100.800 180.667,100.696 180.563 C 100.592 180.458,100.380 181.656,100.225 183.225 M155.324 183.400 C 155.326 184.720,155.401 185.212,155.490 184.493 C 155.579 183.774,155.577 182.694,155.486 182.093 C 155.395 181.492,155.322 182.080,155.324 183.400 M230.531 183.800 C 230.533 185.340,230.605 185.921,230.692 185.091 C 230.779 184.261,230.777 183.001,230.689 182.291 C 230.600 181.581,230.529 182.260,230.531 183.800 M285.720 183.600 C 285.720 184.810,285.795 185.305,285.887 184.700 C 285.978 184.095,285.978 183.105,285.887 182.500 C 285.795 181.895,285.720 182.390,285.720 183.600 M285.293 187.200 C 285.293 187.970,285.375 188.285,285.476 187.900 C 285.576 187.515,285.576 186.885,285.476 186.500 C 285.375 186.115,285.293 186.430,285.293 187.200 M154.893 188.000 C 154.893 188.770,154.975 189.085,155.076 188.700 C 155.176 188.315,155.176 187.685,155.076 187.300 C 154.975 186.915,154.893 187.230,154.893 188.000 M230.101 189.800 C 230.105 190.680,230.187 190.993,230.283 190.495 C 230.379 189.998,230.375 189.278,230.275 188.895 C 230.175 188.513,230.096 188.920,230.101 189.800 M99.413 191.813 C 99.257 193.271,99.214 194.547,99.316 194.650 C 99.419 194.752,99.631 193.644,99.787 192.187 C 99.943 190.729,99.986 189.453,99.884 189.350 C 99.781 189.248,99.569 190.356,99.413 191.813 M154.524 192.200 C 154.526 193.520,154.601 194.012,154.690 193.293 C 154.779 192.574,154.777 191.494,154.686 190.893 C 154.595 190.292,154.522 190.880,154.524 192.200 M284.909 192.000 C 284.909 192.990,284.987 193.395,285.082 192.900 C 285.178 192.405,285.178 191.595,285.082 191.100 C 284.987 190.605,284.909 191.010,284.909 192.000 M229.728 194.400 C 229.728 195.830,229.801 196.415,229.889 195.700 C 229.978 194.985,229.978 193.815,229.889 193.100 C 229.801 192.385,229.728 192.970,229.728 194.400 M284.493 195.200 C 284.493 195.970,284.575 196.285,284.676 195.900 C 284.776 195.515,284.776 194.885,284.676 194.500 C 284.575 194.115,284.493 194.430,284.493 195.200 M154.093 196.400 C 154.093 197.170,154.175 197.485,154.276 197.100 C 154.376 196.715,154.376 196.085,154.276 195.700 C 154.175 195.315,154.093 195.630,154.093 196.400 M98.901 198.200 C 98.905 199.080,98.987 199.393,99.083 198.895 C 99.179 198.398,99.175 197.678,99.075 197.295 C 98.975 196.913,98.896 197.320,98.901 198.200 M153.724 200.600 C 153.726 201.920,153.801 202.412,153.890 201.693 C 153.979 200.974,153.977 199.894,153.886 199.293 C 153.795 198.692,153.722 199.280,153.724 200.600 M229.301 199.800 C 229.305 200.680,229.387 200.993,229.483 200.495 C 229.579 199.998,229.575 199.278,229.475 198.895 C 229.375 198.513,229.296 198.920,229.301 199.800 M283.825 201.625 C 283.670 203.194,283.627 204.561,283.729 204.662 C 283.831 204.764,284.043 203.566,284.200 202.000 C 284.357 200.434,284.400 199.067,284.296 198.963 C 284.192 198.858,283.980 200.056,283.825 201.625 M98.524 202.200 C 98.526 203.520,98.601 204.012,98.690 203.293 C 98.779 202.574,98.777 201.494,98.686 200.893 C 98.595 200.292,98.522 200.880,98.524 202.200 M228.928 204.400 C 228.928 205.830,229.001 206.415,229.089 205.700 C 229.178 204.985,229.178 203.815,229.089 203.100 C 229.001 202.385,228.928 202.970,228.928 204.400 M153.293 204.800 C 153.293 205.570,153.375 205.885,153.476 205.500 C 153.576 205.115,153.576 204.485,153.476 204.100 C 153.375 203.715,153.293 204.030,153.293 204.800 M98.109 208.400 C 98.109 209.390,98.187 209.795,98.282 209.300 C 98.378 208.805,98.378 207.995,98.282 207.500 C 98.187 207.005,98.109 207.410,98.109 208.400 M152.924 209.400 C 152.926 210.720,153.001 211.212,153.090 210.493 C 153.179 209.774,153.177 208.694,153.086 208.093 C 152.995 207.492,152.922 208.080,152.924 209.400 M228.501 209.000 C 228.505 209.880,228.587 210.193,228.683 209.695 C 228.779 209.198,228.775 208.478,228.675 208.095 C 228.575 207.713,228.496 208.120,228.501 209.000 M283.301 209.000 C 283.305 209.880,283.387 210.193,283.483 209.695 C 283.579 209.198,283.575 208.478,283.475 208.095 C 283.375 207.713,283.296 208.120,283.301 209.000 M97.728 212.800 C 97.728 214.230,97.801 214.815,97.889 214.100 C 97.978 213.385,97.978 212.215,97.889 211.500 C 97.801 210.785,97.728 211.370,97.728 212.800 M282.901 212.200 C 282.905 213.080,282.987 213.393,283.083 212.895 C 283.179 212.398,283.175 211.678,283.075 211.295 C 282.975 210.913,282.896 211.320,282.901 212.200 M228.128 213.600 C 228.128 215.030,228.201 215.615,228.289 214.900 C 228.378 214.185,228.378 213.015,228.289 212.300 C 228.201 211.585,228.128 212.170,228.128 213.600 M152.493 213.200 C 152.493 213.970,152.575 214.285,152.676 213.900 C 152.776 213.515,152.776 212.885,152.676 212.500 C 152.575 212.115,152.493 212.430,152.493 213.200 M152.120 218.000 C 152.120 219.210,152.195 219.705,152.287 219.100 C 152.378 218.495,152.378 217.505,152.287 216.900 C 152.195 216.295,152.120 216.790,152.120 218.000 M227.693 218.000 C 227.693 218.770,227.775 219.085,227.876 218.700 C 227.976 218.315,227.976 217.685,227.876 217.300 C 227.775 216.915,227.693 217.230,227.693 218.000 M282.213 219.413 C 282.057 220.871,282.014 222.147,282.116 222.250 C 282.219 222.352,282.431 221.244,282.587 219.787 C 282.743 218.329,282.786 217.053,282.684 216.950 C 282.581 216.848,282.369 217.956,282.213 219.413 M97.309 218.800 C 97.309 219.790,97.387 220.195,97.482 219.700 C 97.578 219.205,97.578 218.395,97.482 217.900 C 97.387 217.405,97.309 217.810,97.309 218.800 M151.701 221.800 C 151.705 222.680,151.787 222.993,151.883 222.495 C 151.979 221.998,151.975 221.278,151.875 220.895 C 151.775 220.513,151.696 220.920,151.701 221.800 M96.931 223.400 C 96.933 224.940,97.005 225.521,97.092 224.691 C 97.179 223.861,97.177 222.601,97.089 221.891 C 97.000 221.181,96.929 221.860,96.931 223.400 M227.328 223.200 C 227.328 224.630,227.401 225.215,227.489 224.500 C 227.578 223.785,227.578 222.615,227.489 221.900 C 227.401 221.185,227.328 221.770,227.328 223.200 M151.035 228.235 C 150.883 229.916,150.841 231.374,150.942 231.476 C 151.043 231.577,151.255 230.288,151.412 228.612 C 151.569 226.936,151.611 225.477,151.505 225.371 C 151.399 225.266,151.188 226.554,151.035 228.235 M281.413 228.213 C 281.257 229.671,281.214 230.947,281.316 231.050 C 281.419 231.152,281.631 230.044,281.787 228.587 C 281.943 227.129,281.986 225.853,281.884 225.750 C 281.781 225.648,281.569 226.756,281.413 228.213 M226.893 227.200 C 226.893 227.970,226.975 228.285,227.076 227.900 C 227.176 227.515,227.176 226.885,227.076 226.500 C 226.975 226.115,226.893 226.430,226.893 227.200 M96.501 229.000 C 96.505 229.880,96.587 230.193,96.683 229.695 C 96.779 229.198,96.775 228.478,96.675 228.095 C 96.575 227.713,96.496 228.120,96.501 229.000 M226.534 233.200 C 226.534 234.850,226.605 235.525,226.691 234.700 C 226.778 233.875,226.778 232.525,226.691 231.700 C 226.605 230.875,226.534 231.550,226.534 233.200 M96.131 234.200 C 96.133 235.740,96.205 236.321,96.292 235.491 C 96.379 234.661,96.377 233.401,96.289 232.691 C 96.200 231.981,96.129 232.660,96.131 234.200 M150.225 236.825 C 150.070 238.394,150.027 239.761,150.129 239.862 C 150.231 239.964,150.443 238.766,150.600 237.200 C 150.757 235.634,150.800 234.267,150.696 234.163 C 150.592 234.058,150.380 235.256,150.225 236.825 M280.587 236.987 C 280.431 238.444,280.393 239.726,280.503 239.836 C 280.613 239.946,280.831 238.844,280.987 237.387 C 281.143 235.929,281.180 234.647,281.070 234.537 C 280.960 234.427,280.743 235.529,280.587 236.987 M226.093 237.600 C 226.093 238.370,226.175 238.685,226.276 238.300 C 226.376 237.915,226.376 237.285,226.276 236.900 C 226.175 236.515,226.093 236.830,226.093 237.600 M95.701 239.400 C 95.705 240.280,95.787 240.593,95.883 240.095 C 95.979 239.598,95.975 238.878,95.875 238.495 C 95.775 238.113,95.696 238.520,95.701 239.400 M225.731 243.800 C 225.733 245.340,225.805 245.921,225.892 245.091 C 225.979 244.261,225.977 243.001,225.889 242.291 C 225.800 241.581,225.729 242.260,225.731 243.800 M95.331 244.600 C 95.333 246.140,95.405 246.721,95.492 245.891 C 95.579 245.061,95.577 243.801,95.489 243.091 C 95.400 242.381,95.329 243.060,95.331 244.600 M149.701 244.200 C 149.705 245.080,149.787 245.393,149.883 244.895 C 149.979 244.398,149.975 243.678,149.875 243.295 C 149.775 242.913,149.696 243.320,149.701 244.200 M279.795 246.111 C 279.643 247.527,279.592 249.026,279.680 249.442 C 279.769 249.859,279.977 248.784,280.142 247.054 C 280.307 245.324,280.358 243.825,280.256 243.723 C 280.154 243.621,279.946 244.695,279.795 246.111 M149.301 247.400 C 149.305 248.280,149.387 248.593,149.483 248.095 C 149.579 247.598,149.575 246.878,149.475 246.495 C 149.375 246.113,149.296 246.520,149.301 247.400 M225.293 248.000 C 225.293 248.770,225.375 249.085,225.476 248.700 C 225.576 248.315,225.576 247.685,225.476 247.300 C 225.375 246.915,225.293 247.230,225.293 248.000 M94.901 249.800 C 94.905 250.680,94.987 250.993,95.083 250.495 C 95.179 249.998,95.175 249.278,95.075 248.895 C 94.975 248.513,94.896 248.920,94.901 249.800 M148.613 254.213 C 148.457 255.671,148.414 256.947,148.516 257.050 C 148.619 257.152,148.831 256.044,148.987 254.587 C 149.143 253.129,149.186 251.853,149.084 251.750 C 148.981 251.648,148.769 252.756,148.613 254.213 M224.871 253.800 C 224.828 254.900,224.711 256.790,224.610 258.000 L 224.426 260.200 224.827 258.000 C 225.048 256.790,225.165 254.900,225.088 253.800 L 224.948 251.800 224.871 253.800 M94.534 255.200 C 94.534 256.850,94.605 257.525,94.691 256.700 C 94.778 255.875,94.778 254.525,94.691 253.700 C 94.605 252.875,94.534 253.550,94.534 255.200 M278.988 256.191 C 278.647 259.831,278.831 260.419,280.287 260.340 L 281.400 260.280 280.255 260.109 L 279.111 259.938 279.391 256.569 C 279.546 254.716,279.581 253.200,279.470 253.200 C 279.359 253.200,279.142 254.546,278.988 256.191 M334.000 254.400 L 332.200 254.680 333.800 254.693 C 334.680 254.700,335.940 254.568,336.600 254.400 C 338.200 253.993,336.619 253.993,334.000 254.400 M326.400 255.200 L 324.600 255.480 326.200 255.493 C 327.080 255.500,328.340 255.368,329.000 255.200 C 330.600 254.793,329.019 254.793,326.400 255.200 M346.200 257.400 C 346.200 258.568,346.332 259.316,346.494 259.062 C 346.656 258.808,346.788 258.060,346.788 257.400 C 346.788 256.740,346.656 255.992,346.494 255.738 C 346.332 255.484,346.200 256.232,346.200 257.400 M318.400 256.000 L 316.600 256.280 318.200 256.293 C 319.080 256.300,320.340 256.168,321.000 256.000 C 322.600 255.593,321.019 255.593,318.400 256.000 M310.600 256.800 L 308.600 257.074 310.400 257.090 C 311.390 257.098,312.740 256.968,313.400 256.800 C 314.977 256.399,313.525 256.399,310.600 256.800 M303.000 257.600 L 301.000 257.874 302.800 257.890 C 303.790 257.898,305.140 257.768,305.800 257.600 C 307.377 257.199,305.925 257.199,303.000 257.600 M294.105 258.687 C 294.714 258.779,295.614 258.777,296.105 258.682 C 296.597 258.587,296.100 258.511,295.000 258.514 C 293.900 258.517,293.497 258.595,294.105 258.687 M94.101 260.200 C 94.105 261.080,94.187 261.393,94.283 260.895 C 94.379 260.398,94.375 259.678,94.275 259.295 C 94.175 258.913,94.096 259.320,94.101 260.200 M287.200 259.200 L 285.000 259.470 287.000 259.487 C 288.100 259.497,289.540 259.368,290.200 259.200 C 291.756 258.804,290.431 258.804,287.200 259.200 M147.800 262.800 C 147.644 264.147,147.601 265.334,147.705 265.438 C 147.809 265.542,148.019 264.522,148.171 263.171 C 148.324 261.821,148.367 260.634,148.267 260.533 C 148.166 260.433,147.956 261.453,147.800 262.800 M223.888 266.366 C 223.729 268.438,223.673 270.206,223.763 270.296 C 224.010 270.543,224.500 264.715,224.327 263.585 C 224.244 263.043,224.047 264.295,223.888 266.366 M93.740 266.400 C 93.740 268.270,93.809 269.035,93.893 268.100 C 93.977 267.165,93.977 265.635,93.893 264.700 C 93.809 263.765,93.740 264.530,93.740 266.400 M146.987 271.387 C 146.831 272.844,146.789 274.123,146.895 274.228 C 147.001 274.334,147.210 273.223,147.360 271.760 C 147.510 270.297,147.551 269.018,147.452 268.918 C 147.352 268.819,147.143 269.929,146.987 271.387 M93.309 271.600 C 93.309 272.590,93.387 272.995,93.482 272.500 C 93.578 272.005,93.578 271.195,93.482 270.700 C 93.387 270.205,93.309 270.610,93.309 271.600 M223.180 275.090 C 223.071 276.019,223.133 276.627,223.320 276.440 C 223.506 276.254,223.596 275.494,223.519 274.751 C 223.383 273.433,223.375 273.442,223.180 275.090 M92.937 278.200 C 92.939 279.960,93.009 280.630,93.093 279.689 C 93.178 278.749,93.177 277.309,93.091 276.489 C 93.005 275.670,92.936 276.440,92.937 278.200 M146.187 279.787 C 146.031 281.244,145.993 282.526,146.103 282.636 C 146.213 282.746,146.431 281.644,146.587 280.187 C 146.743 278.729,146.780 277.447,146.670 277.337 C 146.560 277.227,146.343 278.329,146.187 279.787 M92.501 283.000 C 92.505 283.880,92.587 284.193,92.683 283.695 C 92.779 283.198,92.775 282.478,92.675 282.095 C 92.575 281.713,92.496 282.120,92.501 283.000 M337.691 284.100 C 337.010 285.984,337.104 286.494,337.826 284.830 C 338.153 284.077,338.366 283.299,338.301 283.102 C 338.235 282.905,337.960 283.354,337.691 284.100 M145.429 287.029 C 145.281 287.615,145.238 288.172,145.332 288.266 C 145.427 288.360,145.624 287.958,145.771 287.371 C 145.919 286.785,145.962 286.228,145.868 286.134 C 145.773 286.040,145.576 286.442,145.429 287.029 M92.131 289.400 C 92.133 290.940,92.205 291.521,92.292 290.691 C 92.379 289.861,92.377 288.601,92.289 287.891 C 92.200 287.181,92.129 287.860,92.131 289.400 M336.315 287.810 C 336.192 288.245,335.969 288.960,335.820 289.400 C 335.671 289.840,335.842 289.694,336.200 289.076 C 336.558 288.458,336.781 287.742,336.695 287.486 C 336.610 287.230,336.439 287.376,336.315 287.810 M91.701 293.800 C 91.705 294.680,91.787 294.993,91.883 294.495 C 91.979 293.998,91.975 293.278,91.875 292.895 C 91.775 292.513,91.696 292.920,91.701 293.800 M91.328 300.800 C 91.328 302.230,91.401 302.815,91.489 302.100 C 91.578 301.385,91.578 300.215,91.489 299.500 C 91.401 298.785,91.328 299.370,91.328 300.800 M320.400 300.400 L 318.600 300.680 320.200 300.700 C 321.080 300.711,322.250 300.576,322.800 300.400 C 324.063 299.995,323.002 299.995,320.400 300.400 M311.100 301.093 C 312.035 301.177,313.565 301.177,314.500 301.093 C 315.435 301.009,314.670 300.940,312.800 300.940 C 310.930 300.940,310.165 301.009,311.100 301.093 M300.900 301.497 C 302.385 301.574,304.815 301.574,306.300 301.497 C 307.785 301.420,306.570 301.357,303.600 301.357 C 300.630 301.357,299.415 301.420,300.900 301.497 M288.311 301.893 C 289.251 301.978,290.691 301.977,291.511 301.891 C 292.330 301.805,291.560 301.736,289.800 301.737 C 288.040 301.739,287.370 301.809,288.311 301.893 M279.300 302.296 C 280.565 302.375,282.635 302.375,283.900 302.296 C 285.165 302.216,284.130 302.151,281.600 302.151 C 279.070 302.151,278.035 302.216,279.300 302.296 M268.313 302.695 C 269.476 302.776,271.276 302.776,272.313 302.693 C 273.351 302.611,272.400 302.545,270.200 302.546 C 268.000 302.547,267.151 302.614,268.313 302.695 M247.900 303.099 C 251.035 303.167,256.165 303.167,259.300 303.099 C 262.435 303.032,259.870 302.976,253.600 302.976 C 247.330 302.976,244.765 303.032,247.900 303.099 M226.100 303.497 C 227.585 303.574,230.015 303.574,231.500 303.497 C 232.985 303.420,231.770 303.357,228.800 303.357 C 225.830 303.357,224.615 303.420,226.100 303.497 M217.907 303.890 C 218.626 303.979,219.706 303.977,220.307 303.886 C 220.908 303.795,220.320 303.722,219.000 303.724 C 217.680 303.726,217.188 303.801,217.907 303.890 " stroke="none" fill="#94c4c4" fill-rule="evenodd"></path><path id="path3" d="" stroke="none" fill="#8cc4c4" fill-rule="evenodd"></path><path id="path4" d="M287.696 93.932 C 287.420 94.108,288.250 94.175,289.543 94.082 C 291.652 93.929,291.960 94.007,292.546 94.845 C 292.906 95.358,293.200 95.586,293.200 95.351 C 293.200 93.967,289.246 92.948,287.696 93.932 M201.200 94.805 C 199.770 94.950,201.480 94.984,205.000 94.881 C 208.520 94.778,211.475 94.627,211.567 94.547 C 211.826 94.318,204.102 94.511,201.200 94.805 M218.926 94.807 C 219.545 94.992,220.273 95.292,220.544 95.472 C 220.816 95.653,220.694 95.485,220.275 95.100 C 219.855 94.715,219.126 94.415,218.656 94.434 C 217.962 94.462,218.013 94.533,218.926 94.807 M284.400 94.818 C 283.962 95.115,284.124 95.152,285.000 94.956 C 286.471 94.627,286.790 94.398,285.767 94.406 C 285.345 94.409,284.730 94.595,284.400 94.818 M182.600 95.607 C 181.280 95.754,182.720 95.790,185.800 95.686 C 188.880 95.581,191.475 95.430,191.567 95.348 C 191.826 95.118,185.280 95.307,182.600 95.607 M165.600 96.410 C 164.390 96.561,165.740 96.599,168.600 96.494 C 171.460 96.388,173.875 96.234,173.967 96.151 C 174.229 95.913,168.037 96.105,165.600 96.410 M277.800 96.400 C 277.296 96.617,277.222 96.744,277.600 96.744 C 277.930 96.744,278.560 96.589,279.000 96.400 C 279.504 96.183,279.578 96.056,279.200 96.056 C 278.870 96.056,278.240 96.211,277.800 96.400 M293.328 98.400 C 293.328 99.830,293.401 100.415,293.489 99.700 C 293.578 98.985,293.578 97.815,293.489 97.100 C 293.401 96.385,293.328 96.970,293.328 98.400 M149.200 97.209 C 147.990 97.360,149.160 97.398,151.800 97.292 C 154.440 97.187,156.675 97.034,156.767 96.951 C 157.024 96.718,151.667 96.901,149.200 97.209 M133.200 98.011 C 131.978 98.165,133.046 98.203,135.600 98.097 C 138.130 97.991,140.275 97.837,140.367 97.753 C 140.620 97.520,135.689 97.698,133.200 98.011 M271.000 98.000 C 270.496 98.217,270.422 98.344,270.800 98.344 C 271.130 98.344,271.760 98.189,272.200 98.000 C 272.704 97.783,272.778 97.656,272.400 97.656 C 272.070 97.656,271.440 97.811,271.000 98.000 M121.500 98.689 C 122.215 98.778,123.385 98.778,124.100 98.689 C 124.815 98.601,124.230 98.528,122.800 98.528 C 121.370 98.528,120.785 98.601,121.500 98.689 M267.400 98.800 C 266.896 99.017,266.822 99.144,267.200 99.144 C 267.530 99.144,268.160 98.989,268.600 98.800 C 269.104 98.583,269.178 98.456,268.800 98.456 C 268.470 98.456,267.840 98.611,267.400 98.800 M116.900 99.087 C 117.505 99.178,118.495 99.178,119.100 99.087 C 119.705 98.995,119.210 98.920,118.000 98.920 C 116.790 98.920,116.295 98.995,116.900 99.087 M103.600 99.600 L 101.000 99.862 103.200 99.884 C 104.410 99.896,106.570 99.775,108.000 99.614 L 110.600 99.322 108.400 99.330 C 107.190 99.334,105.030 99.456,103.600 99.600 M264.200 99.600 C 263.696 99.817,263.622 99.944,264.000 99.944 C 264.330 99.944,264.960 99.789,265.400 99.600 C 265.904 99.383,265.978 99.256,265.600 99.256 C 265.270 99.256,264.640 99.411,264.200 99.600 M93.507 100.290 C 94.226 100.379,95.306 100.377,95.907 100.286 C 96.508 100.195,95.920 100.122,94.600 100.124 C 93.280 100.126,92.788 100.201,93.507 100.290 M260.800 100.400 C 259.976 100.664,259.941 100.726,260.600 100.754 C 261.040 100.773,261.670 100.613,262.000 100.400 C 262.701 99.947,262.214 99.947,260.800 100.400 M87.891 100.689 C 88.601 100.777,89.861 100.779,90.691 100.692 C 91.521 100.605,90.940 100.533,89.400 100.531 C 87.860 100.529,87.181 100.600,87.891 100.689 M80.100 101.087 C 80.705 101.178,81.695 101.178,82.300 101.087 C 82.905 100.995,82.410 100.920,81.200 100.920 C 79.990 100.920,79.495 100.995,80.100 101.087 M74.291 101.489 C 75.001 101.577,76.261 101.579,77.091 101.492 C 77.921 101.405,77.340 101.333,75.800 101.331 C 74.260 101.329,73.581 101.400,74.291 101.489 M254.000 102.000 C 253.196 102.257,253.157 102.323,253.800 102.332 C 254.240 102.338,254.960 102.189,255.400 102.000 C 256.419 101.562,255.368 101.562,254.000 102.000 M68.446 103.667 C 68.421 104.034,68.296 104.664,68.170 105.067 C 67.952 105.762,67.963 105.763,68.397 105.087 C 68.648 104.696,68.773 104.066,68.673 103.687 C 68.511 103.068,68.488 103.066,68.446 103.667 M245.400 104.019 C 244.842 104.271,245.085 104.307,246.200 104.138 C 247.080 104.004,247.875 103.828,247.967 103.747 C 248.310 103.444,246.168 103.671,245.400 104.019 M292.874 105.844 C 292.833 106.968,292.715 108.768,292.611 109.844 L 292.422 111.800 292.830 109.842 C 293.054 108.766,293.173 106.966,293.093 105.842 L 292.948 103.800 292.874 105.844 M238.800 105.606 C 238.378 105.882,238.615 105.923,239.600 105.742 C 241.325 105.425,241.651 105.198,240.367 105.206 C 239.835 105.209,239.130 105.389,238.800 105.606 M236.029 107.054 C 235.573 107.634,235.207 108.309,235.216 108.554 C 235.225 108.799,235.506 108.495,235.840 107.878 C 236.175 107.261,236.843 106.598,237.324 106.404 C 237.966 106.145,238.021 106.044,237.529 106.025 C 237.160 106.011,236.485 106.474,236.029 107.054 M234.909 111.200 C 234.909 112.190,234.987 112.595,235.082 112.100 C 235.178 111.605,235.178 110.795,235.082 110.300 C 234.987 109.805,234.909 110.210,234.909 111.200 M234.501 114.600 C 234.505 115.480,234.587 115.793,234.683 115.295 C 234.779 114.798,234.775 114.078,234.675 113.695 C 234.575 113.313,234.496 113.720,234.501 114.600 M292.068 115.600 C 292.026 116.590,291.906 118.120,291.802 119.000 L 291.612 120.600 292.022 119.000 C 292.248 118.120,292.368 116.590,292.288 115.600 L 292.144 113.800 292.068 115.600 M214.044 118.044 C 213.798 118.751,213.666 119.400,213.752 119.485 C 213.838 119.571,214.109 119.062,214.356 118.356 C 214.602 117.649,214.734 117.000,214.648 116.915 C 214.562 116.829,214.291 117.338,214.044 118.044 M234.142 123.400 C 234.141 125.380,234.208 126.240,234.292 125.312 C 234.376 124.384,234.377 122.764,234.295 121.712 C 234.212 120.660,234.143 121.420,234.142 123.400 M212.444 122.444 C 212.198 123.151,212.066 123.800,212.152 123.885 C 212.238 123.971,212.509 123.462,212.756 122.756 C 213.002 122.049,213.134 121.400,213.048 121.315 C 212.962 121.229,212.691 121.738,212.444 122.444 M291.267 124.050 C 291.230 124.847,291.111 126.108,291.001 126.850 L 290.803 128.200 291.223 126.860 C 291.454 126.123,291.574 124.863,291.489 124.060 L 291.334 122.600 291.267 124.050 M233.720 129.200 C 233.720 130.410,233.795 130.905,233.887 130.300 C 233.978 129.695,233.978 128.705,233.887 128.100 C 233.795 127.495,233.720 127.990,233.720 129.200 M290.266 132.768 C 290.119 134.178,290.074 135.407,290.166 135.500 C 290.414 135.747,290.915 131.346,290.710 130.730 C 290.613 130.440,290.414 131.357,290.266 132.768 M233.328 137.600 C 233.328 139.030,233.401 139.615,233.489 138.900 C 233.578 138.185,233.578 137.015,233.489 136.300 C 233.401 135.585,233.328 136.170,233.328 137.600 M55.058 139.304 C 54.128 141.740,54.280 142.204,55.236 139.847 C 55.672 138.773,55.958 137.824,55.872 137.738 C 55.786 137.652,55.420 138.357,55.058 139.304 M289.663 139.000 C 289.623 139.660,289.504 140.920,289.397 141.800 L 289.203 143.400 289.623 142.060 C 289.854 141.323,289.974 140.063,289.889 139.260 C 289.752 137.966,289.726 137.937,289.663 139.000 M232.914 142.200 C 232.917 143.300,232.995 143.703,233.087 143.095 C 233.179 142.486,233.177 141.586,233.082 141.095 C 232.987 140.603,232.911 141.100,232.914 142.200 M53.646 146.251 C 53.621 146.719,53.915 147.349,54.300 147.651 C 54.909 148.128,54.940 148.122,54.543 147.600 C 54.292 147.270,53.998 146.640,53.889 146.200 C 53.703 145.440,53.690 145.443,53.646 146.251 M288.648 149.949 C 288.492 152.010,288.445 153.778,288.544 153.877 C 288.795 154.128,289.329 147.388,289.110 146.734 C 289.012 146.440,288.804 147.887,288.648 149.949 M65.300 148.300 C 70.965 148.362,80.235 148.362,85.900 148.300 C 91.565 148.237,86.930 148.186,75.600 148.186 C 64.270 148.186,59.635 148.237,65.300 148.300 M102.131 151.000 C 102.133 152.540,102.205 153.121,102.292 152.291 C 102.379 151.461,102.377 150.201,102.289 149.491 C 102.200 148.781,102.129 149.460,102.131 151.000 M168.900 148.700 C 174.565 148.762,183.835 148.762,189.500 148.700 C 195.165 148.637,190.530 148.586,179.200 148.586 C 167.870 148.586,163.235 148.637,168.900 148.700 M232.210 152.210 C 232.051 154.324,232.007 156.140,232.112 156.245 C 232.216 156.350,232.432 154.705,232.590 152.590 C 232.749 150.476,232.793 148.660,232.688 148.555 C 232.584 148.450,232.368 150.095,232.210 152.210 M158.465 152.200 C 158.425 153.080,158.306 154.520,158.202 155.400 L 158.012 157.000 158.423 155.400 C 158.648 154.520,158.767 153.080,158.686 152.200 L 158.540 150.600 158.465 152.200 M101.720 156.400 C 101.720 157.610,101.795 158.105,101.887 157.500 C 101.978 156.895,101.978 155.905,101.887 155.300 C 101.795 154.695,101.720 155.190,101.720 156.400 M287.880 161.366 C 287.726 163.108,287.673 164.607,287.764 164.698 C 288.011 164.944,288.506 159.836,288.321 158.958 C 288.233 158.541,288.035 159.625,287.880 161.366 M157.480 162.966 C 157.326 164.708,157.273 166.207,157.364 166.298 C 157.611 166.544,158.106 161.436,157.921 160.558 C 157.833 160.141,157.635 161.225,157.480 162.966 M101.337 164.200 C 101.339 165.960,101.409 166.630,101.493 165.689 C 101.578 164.749,101.577 163.309,101.491 162.489 C 101.405 161.670,101.336 162.440,101.337 164.200 M231.400 164.800 C 231.241 166.805,231.198 168.531,231.303 168.636 C 231.408 168.742,231.623 167.186,231.780 165.180 C 231.937 163.174,231.981 161.447,231.877 161.344 C 231.773 161.240,231.559 162.795,231.400 164.800 M100.920 170.000 C 100.920 171.210,100.995 171.705,101.087 171.100 C 101.178 170.495,101.178 169.505,101.087 168.900 C 100.995 168.295,100.920 168.790,100.920 170.000 M287.040 171.440 C 286.890 172.903,286.849 174.182,286.948 174.282 C 287.048 174.381,287.257 173.271,287.413 171.813 C 287.569 170.356,287.611 169.077,287.505 168.972 C 287.399 168.866,287.190 169.977,287.040 171.440 M156.863 170.400 C 156.823 171.170,156.706 172.520,156.602 173.400 L 156.412 175.000 156.823 173.400 C 157.048 172.520,157.166 171.170,157.084 170.400 L 156.934 169.000 156.863 170.400 M230.611 177.011 C 230.453 178.906,230.409 180.542,230.513 180.646 C 230.617 180.750,230.832 179.285,230.989 177.389 C 231.147 175.494,231.191 173.858,231.087 173.754 C 230.983 173.650,230.768 175.115,230.611 177.011 M100.268 178.955 C 100.108 181.130,100.054 182.988,100.150 183.083 C 100.397 183.330,100.917 176.686,100.722 175.765 C 100.633 175.344,100.429 176.780,100.268 178.955 M155.866 179.968 C 155.719 181.378,155.674 182.607,155.766 182.700 C 156.014 182.947,156.515 178.546,156.310 177.930 C 156.213 177.640,156.014 178.557,155.866 179.968 M286.240 179.942 C 286.081 181.340,286.037 182.570,286.142 182.676 C 286.408 182.941,286.927 178.579,286.707 177.928 C 286.610 177.638,286.399 178.544,286.240 179.942 M229.788 188.188 C 229.631 189.864,229.589 191.323,229.695 191.429 C 229.801 191.534,230.012 190.246,230.165 188.565 C 230.317 186.884,230.359 185.426,230.258 185.324 C 230.157 185.223,229.945 186.512,229.788 188.188 M155.064 188.550 C 154.901 190.063,154.850 191.383,154.951 191.484 C 155.214 191.747,155.710 187.450,155.519 186.553 C 155.431 186.139,155.226 187.038,155.064 188.550 M285.429 188.429 C 285.276 189.779,285.233 190.966,285.333 191.067 C 285.434 191.167,285.644 190.147,285.800 188.800 C 285.956 187.453,285.999 186.266,285.895 186.162 C 285.791 186.058,285.581 187.078,285.429 188.429 M99.693 187.600 C 99.693 188.370,99.775 188.685,99.876 188.300 C 99.976 187.915,99.976 187.285,99.876 186.900 C 99.775 186.515,99.693 186.830,99.693 187.600 M99.293 190.400 C 99.293 191.170,99.375 191.485,99.476 191.100 C 99.576 190.715,99.576 190.085,99.476 189.700 C 99.375 189.315,99.293 189.630,99.293 190.400 M284.629 196.429 C 284.476 197.779,284.433 198.966,284.533 199.067 C 284.634 199.167,284.844 198.147,285.000 196.800 C 285.156 195.453,285.199 194.266,285.095 194.162 C 284.991 194.058,284.781 195.078,284.629 196.429 M98.600 196.800 C 98.444 198.147,98.401 199.334,98.505 199.438 C 98.609 199.542,98.819 198.522,98.971 197.171 C 99.124 195.821,99.167 194.634,99.067 194.533 C 98.966 194.433,98.756 195.453,98.600 196.800 M154.266 197.168 C 154.119 198.578,154.074 199.807,154.166 199.900 C 154.414 200.147,154.915 195.746,154.710 195.130 C 154.613 194.840,154.414 195.757,154.266 197.168 M228.988 198.188 C 228.831 199.864,228.789 201.323,228.895 201.429 C 229.001 201.534,229.212 200.246,229.365 198.565 C 229.517 196.884,229.559 195.426,229.458 195.324 C 229.357 195.223,229.145 196.512,228.988 198.188 M283.813 205.013 C 283.657 206.471,283.614 207.747,283.716 207.850 C 283.819 207.952,284.031 206.844,284.187 205.387 C 284.343 203.929,284.386 202.653,284.284 202.550 C 284.181 202.448,283.969 203.556,283.813 205.013 M97.800 206.400 C 97.642 208.185,97.599 209.732,97.703 209.837 C 97.808 209.942,98.022 208.565,98.178 206.778 C 98.334 204.990,98.377 203.444,98.274 203.341 C 98.171 203.238,97.958 204.615,97.800 206.400 M153.466 205.568 C 153.319 206.978,153.274 208.207,153.366 208.300 C 153.614 208.547,154.115 204.146,153.910 203.530 C 153.813 203.240,153.614 204.157,153.466 205.568 M228.286 206.600 C 228.133 207.480,228.029 208.830,228.053 209.600 C 228.085 210.601,228.199 210.317,228.453 208.600 C 228.856 205.879,228.711 204.146,228.286 206.600 M283.301 212.200 C 283.305 213.080,283.387 213.393,283.483 212.895 C 283.579 212.398,283.575 211.678,283.475 211.295 C 283.375 210.913,283.296 211.320,283.301 212.200 M152.629 214.429 C 152.476 215.779,152.433 216.966,152.533 217.067 C 152.634 217.167,152.844 216.147,153.000 214.800 C 153.156 213.453,153.199 212.266,153.095 212.162 C 152.991 212.058,152.781 213.078,152.629 214.429 M96.988 216.988 C 96.831 218.664,96.789 220.123,96.895 220.229 C 97.001 220.334,97.212 219.046,97.365 217.365 C 97.517 215.684,97.559 214.226,97.458 214.124 C 97.357 214.023,97.145 215.312,96.988 216.988 M282.914 215.800 C 282.917 216.900,282.995 217.303,283.087 216.695 C 283.179 216.086,283.177 215.186,283.082 214.695 C 282.987 214.203,282.911 214.700,282.914 215.800 M227.472 215.804 C 227.327 216.682,227.230 218.120,227.255 219.000 C 227.289 220.167,227.398 219.848,227.657 217.821 C 228.045 214.797,227.900 213.214,227.472 215.804 M282.493 221.200 C 282.493 221.970,282.575 222.285,282.676 221.900 C 282.776 221.515,282.776 220.885,282.676 220.500 C 282.575 220.115,282.493 220.430,282.493 221.200 M151.829 222.829 C 151.676 224.179,151.633 225.366,151.733 225.467 C 151.834 225.567,152.044 224.547,152.200 223.200 C 152.356 221.853,152.399 220.666,152.295 220.562 C 152.191 220.458,151.981 221.478,151.829 222.829 M282.120 224.800 C 282.120 226.010,282.195 226.505,282.287 225.900 C 282.378 225.295,282.378 224.305,282.287 223.700 C 282.195 223.095,282.120 223.590,282.120 224.800 M226.659 225.088 C 226.521 225.919,226.431 227.410,226.458 228.400 C 226.492 229.684,226.602 229.288,226.841 227.021 C 227.193 223.678,227.084 222.516,226.659 225.088 M96.188 227.388 C 96.031 229.064,95.989 230.523,96.095 230.629 C 96.201 230.734,96.412 229.446,96.565 227.765 C 96.717 226.084,96.759 224.626,96.658 224.524 C 96.557 224.423,96.345 225.712,96.188 227.388 M151.301 230.200 C 151.305 231.080,151.387 231.393,151.483 230.895 C 151.579 230.398,151.575 229.678,151.475 229.295 C 151.375 228.913,151.296 229.320,151.301 230.200 M281.693 230.000 C 281.693 230.770,281.775 231.085,281.876 230.700 C 281.976 230.315,281.976 229.685,281.876 229.300 C 281.775 228.915,281.693 229.230,281.693 230.000 M281.320 233.600 C 281.320 234.810,281.395 235.305,281.487 234.700 C 281.578 234.095,281.578 233.105,281.487 232.500 C 281.395 231.895,281.320 232.390,281.320 233.600 M150.893 233.200 C 150.893 233.970,150.975 234.285,151.076 233.900 C 151.176 233.515,151.176 232.885,151.076 232.500 C 150.975 232.115,150.893 232.430,150.893 233.200 M225.868 235.359 C 225.720 236.433,225.624 238.052,225.653 238.956 C 225.686 239.979,225.835 239.392,226.048 237.400 C 226.427 233.850,226.289 232.287,225.868 235.359 M95.393 237.738 C 95.238 239.387,95.192 240.975,95.290 241.268 C 95.388 241.561,95.594 240.291,95.748 238.447 C 95.902 236.603,95.948 235.015,95.851 234.917 C 95.753 234.820,95.547 236.089,95.393 237.738 M280.901 238.600 C 280.905 239.480,280.987 239.793,281.083 239.295 C 281.179 238.798,281.175 238.078,281.075 237.695 C 280.975 237.313,280.896 237.720,280.901 238.600 M150.213 240.213 C 150.057 241.671,150.014 242.947,150.116 243.050 C 150.219 243.152,150.431 242.044,150.587 240.587 C 150.743 239.129,150.786 237.853,150.684 237.750 C 150.581 237.648,150.369 238.756,150.213 240.213 M280.528 242.800 C 280.528 244.230,280.601 244.815,280.689 244.100 C 280.778 243.385,280.778 242.215,280.689 241.500 C 280.601 240.785,280.528 241.370,280.528 242.800 M225.056 245.845 C 224.915 246.872,224.824 248.542,224.854 249.556 C 224.889 250.751,225.029 250.143,225.251 247.830 C 225.616 244.040,225.485 242.713,225.056 245.845 M94.593 248.138 C 94.438 249.787,94.392 251.375,94.490 251.668 C 94.588 251.961,94.794 250.691,94.948 248.847 C 95.102 247.003,95.148 245.415,95.051 245.317 C 94.953 245.220,94.747 246.489,94.593 248.138 M149.388 248.988 C 149.231 250.664,149.189 252.123,149.295 252.229 C 149.401 252.334,149.612 251.046,149.765 249.365 C 149.917 247.684,149.959 246.226,149.858 246.124 C 149.757 246.023,149.545 247.312,149.388 248.988 M280.101 247.800 C 280.105 248.680,280.187 248.993,280.283 248.495 C 280.379 247.998,280.375 247.278,280.275 246.895 C 280.175 246.513,280.096 246.920,280.101 247.800 M279.731 253.000 C 279.733 254.540,279.805 255.121,279.892 254.291 C 279.979 253.461,279.977 252.201,279.889 251.491 C 279.800 250.781,279.729 251.460,279.731 253.000 M340.481 253.899 C 344.977 254.020,345.194 254.066,345.981 255.066 C 346.431 255.639,346.800 255.935,346.800 255.724 C 346.800 254.170,344.999 253.599,340.374 253.686 L 335.800 253.772 340.481 253.899 M148.901 255.800 C 148.905 256.680,148.987 256.993,149.083 256.495 C 149.179 255.998,149.175 255.278,149.075 254.895 C 148.975 254.513,148.896 254.920,148.901 255.800 M224.493 255.600 C 224.493 256.370,224.575 256.685,224.676 256.300 C 224.776 255.915,224.776 255.285,224.676 254.900 C 224.575 254.515,224.493 254.830,224.493 255.600 M328.900 254.687 C 329.505 254.778,330.495 254.778,331.100 254.687 C 331.705 254.595,331.210 254.520,330.000 254.520 C 328.790 254.520,328.295 254.595,328.900 254.687 M321.300 255.487 C 321.905 255.578,322.895 255.578,323.500 255.487 C 324.105 255.395,323.610 255.320,322.400 255.320 C 321.190 255.320,320.695 255.395,321.300 255.487 M93.868 257.759 C 93.720 258.833,93.624 260.452,93.653 261.356 C 93.686 262.379,93.835 261.792,94.048 259.800 C 94.427 256.250,94.289 254.687,93.868 257.759 M311.400 256.406 C 310.697 256.588,311.442 256.628,313.200 256.503 C 314.850 256.385,316.275 256.224,316.367 256.144 C 316.675 255.878,312.613 256.091,311.400 256.406 M279.267 258.332 L 279.200 260.064 281.900 259.783 C 283.385 259.628,284.690 259.409,284.800 259.295 C 284.910 259.181,283.795 259.196,282.323 259.327 L 279.646 259.566 279.490 258.083 C 279.336 256.611,279.334 256.613,279.267 258.332 M305.705 257.087 C 306.314 257.179,307.214 257.177,307.705 257.082 C 308.197 256.987,307.700 256.911,306.600 256.914 C 305.500 256.917,305.097 256.995,305.705 257.087 M224.128 259.600 C 224.128 261.030,224.201 261.615,224.289 260.900 C 224.378 260.185,224.378 259.015,224.289 258.300 C 224.201 257.585,224.128 258.170,224.128 259.600 M148.514 259.400 C 148.517 260.500,148.595 260.903,148.687 260.295 C 148.779 259.686,148.777 258.786,148.682 258.295 C 148.587 257.803,148.511 258.300,148.514 259.400 M296.000 258.002 C 295.400 258.195,296.040 258.237,297.600 258.106 C 299.030 257.986,300.275 257.823,300.367 257.744 C 300.689 257.465,296.988 257.684,296.000 258.002 M288.200 258.811 C 287.472 259.002,288.102 259.041,289.800 258.909 C 291.340 258.789,292.675 258.625,292.767 258.545 C 293.073 258.278,289.416 258.491,288.200 258.811 M345.691 261.300 C 345.010 263.184,345.104 263.694,345.826 262.030 C 346.153 261.277,346.366 260.499,346.301 260.302 C 346.235 260.105,345.960 260.554,345.691 261.300 M148.093 264.400 C 148.093 265.170,148.175 265.485,148.276 265.100 C 148.376 264.715,148.376 264.085,148.276 263.700 C 148.175 263.315,148.093 263.630,148.093 264.400 M223.693 266.000 C 223.693 266.770,223.775 267.085,223.876 266.700 C 223.976 266.315,223.976 265.685,223.876 265.300 C 223.775 264.915,223.693 265.230,223.693 266.000 M147.724 268.200 C 147.726 269.520,147.801 270.012,147.890 269.293 C 147.979 268.574,147.977 267.494,147.886 266.893 C 147.795 266.292,147.722 266.880,147.724 268.200 M93.071 268.802 C 92.926 270.011,92.830 271.900,92.858 273.000 C 92.893 274.334,93.023 273.735,93.251 271.200 C 93.624 267.037,93.493 265.286,93.071 268.802 M223.331 270.200 C 223.333 271.740,223.405 272.321,223.492 271.491 C 223.579 270.661,223.577 269.401,223.489 268.691 C 223.400 267.981,223.329 268.660,223.331 270.200 M147.293 272.800 C 147.293 273.570,147.375 273.885,147.476 273.500 C 147.576 273.115,147.576 272.485,147.476 272.100 C 147.375 271.715,147.293 272.030,147.293 272.800 M146.924 277.000 C 146.926 278.320,147.001 278.812,147.090 278.093 C 147.179 277.374,147.177 276.294,147.086 275.693 C 146.995 275.092,146.922 275.680,146.924 277.000 M92.271 280.402 C 92.126 281.611,92.030 283.410,92.058 284.400 C 92.088 285.489,92.245 284.779,92.454 282.600 C 92.835 278.634,92.691 276.904,92.271 280.402 M146.493 281.200 C 146.493 281.970,146.575 282.285,146.676 281.900 C 146.776 281.515,146.776 280.885,146.676 280.500 C 146.575 280.115,146.493 280.430,146.493 281.200 M146.114 285.000 C 146.117 286.100,146.195 286.503,146.287 285.895 C 146.379 285.286,146.377 284.386,146.282 283.895 C 146.187 283.403,146.111 283.900,146.114 285.000 M91.456 291.445 C 91.315 292.472,91.225 294.322,91.256 295.556 C 91.298 297.223,91.396 296.776,91.640 293.817 C 91.986 289.607,91.886 288.309,91.456 291.445 M331.400 296.519 L 329.400 298.553 331.107 297.237 C 332.046 296.514,332.997 295.580,333.221 295.161 C 333.774 294.127,333.689 294.190,331.400 296.519 M127.400 295.814 C 125.785 296.554,126.751 296.555,128.454 295.816 C 129.194 295.494,129.530 295.239,129.200 295.248 C 128.870 295.257,128.060 295.512,127.400 295.814 M212.643 299.433 C 212.180 300.638,212.403 302.305,213.100 302.851 C 213.735 303.349,213.749 303.335,213.248 302.696 C 212.888 302.238,212.770 301.436,212.910 300.396 C 213.136 298.711,213.045 298.384,212.643 299.433 M323.200 300.400 C 322.396 300.657,322.357 300.723,323.000 300.732 C 323.440 300.738,324.160 300.589,324.600 300.400 C 325.619 299.962,324.568 299.962,323.200 300.400 M313.200 301.200 L 309.800 301.451 312.800 301.496 C 314.450 301.521,316.610 301.397,317.600 301.220 C 319.839 300.822,318.411 300.815,313.200 301.200 M290.000 302.000 L 286.600 302.251 289.400 302.276 C 290.940 302.290,294.090 302.174,296.400 302.018 L 300.600 301.734 297.000 301.742 C 295.020 301.746,291.870 301.862,290.000 302.000 M270.400 302.800 L 265.800 303.040 270.000 303.073 C 272.310 303.092,275.370 302.975,276.800 302.814 L 279.400 302.522 277.200 302.541 C 275.990 302.551,272.930 302.668,270.400 302.800 M91.225 303.638 C 91.199 304.309,92.402 305.609,93.031 305.588 C 93.234 305.581,93.074 305.386,92.674 305.154 C 92.275 304.922,91.792 304.342,91.600 303.866 C 91.363 303.280,91.243 303.206,91.225 303.638 M214.400 303.582 C 214.730 303.805,215.345 303.991,215.767 303.994 C 216.790 304.002,216.471 303.773,215.000 303.444 C 214.124 303.248,213.962 303.285,214.400 303.582 M228.600 303.600 L 221.800 303.829 228.200 303.863 C 231.720 303.882,237.300 303.772,240.600 303.619 L 246.600 303.342 241.000 303.356 C 237.920 303.364,232.340 303.474,228.600 303.600 M93.863 306.100 C 94.100 306.486,98.853 306.481,99.463 306.094 C 99.718 305.932,98.520 305.800,96.802 305.800 C 95.084 305.800,93.762 305.935,93.863 306.100 " stroke="none" fill="#83bcbc" fill-rule="evenodd"></path></g></svg>